<svg width="1680" height="350" viewBox="0 0 1680 350" fill="none" xmlns="http://www.w3.org/2000/svg">
<mask id="mask0_265_1501" style="mask-type:alpha" maskUnits="userSpaceOnUse" x="0" y="0" width="1680" height="347">
<path d="M1680 306.5V136C1680 113.909 1662.09 96 1640 96H1609.5H1251.25C1242.34 96 1233.68 93.0245 1226.66 87.5454L1171.31 44.3932C1164.28 38.9141 1155.62 35.9386 1146.71 35.9386H748.205C741.726 35.9386 735.344 34.3649 729.608 31.3528L678.635 4.58582C672.899 1.57372 666.517 0 660.038 0H276.501C270.742 0 265.051 1.24354 259.817 3.64561L126.444 64.8544C121.21 67.2565 115.519 68.5 109.76 68.5H40C17.9086 68.5 0 86.4086 0 108.5V306.5C0 328.591 17.9086 346.5 40 346.5H827.5H1640C1662.09 346.5 1680 328.591 1680 306.5Z" fill="#1D1A1B"/>
</mask>
<g mask="url(#mask0_265_1501)">
<path d="M1680 311V136C1680 113.909 1662.09 96 1640 96H1618H1265.87C1247.22 96 1231.05 83.1154 1226.88 64.94L1221.89 43.1929C1218.32 27.6045 1205.8 15.6435 1190.07 12.7795L774.552 -62.8534C772.189 -63.2836 769.792 -63.5 767.389 -63.5H638.5H322.43C320.479 -63.5 318.531 -63.3573 316.601 -63.0731L136.831 -36.5952C129.741 -35.5509 123.061 -32.621 117.491 -28.1119L14.832 54.9931C5.45044 62.5877 0 74.0126 0 86.0829V311C0 333.091 17.9087 351 40 351H1640C1662.09 351 1680 333.091 1680 311Z" fill="#1D1A1B"/>
<path d="M695 250.632H864.744V82H1027.42C1027.42 175.16 1102.86 250.632 1195.98 250.632V413.368H1027.42V582H864.744C864.744 488.84 788.123 413.368 695 413.368V250.632Z" fill="#231F21"/>
</g>
</svg>
