<svg width="1681" height="530" viewBox="0 0 1681 530" fill="none" xmlns="http://www.w3.org/2000/svg">
<path d="M0 436.105C0 444.996 3.69952 453.487 10.2116 459.541L76.7887 521.436C82.7091 526.941 90.4933 530 98.5771 530H241.163C249.633 530 256.5 523.133 256.5 514.663C256.5 506.193 263.367 499.326 271.837 499.326H1387.31C1393.63 499.326 1399.81 501.197 1405.06 504.703L1434.94 524.624C1440.19 528.129 1446.37 530 1452.69 530H1649C1666.67 530 1681 515.673 1681 498V32C1681 14.3269 1666.67 0 1649 0H1565H399.5H310H32C14.3269 0 0 14.3269 0 32V190.076V255.446V340.93V381.158V436.105Z" fill="#1D1A1B"/>
<mask id="mask0_449_133" style="mask-type:alpha" maskUnits="userSpaceOnUse" x="0" y="0" width="1681" height="530">
<path d="M0 436.105C0 444.996 3.69952 453.487 10.2116 459.541L76.7887 521.436C82.7091 526.941 90.4933 530 98.5771 530H241.163C249.633 530 256.5 523.133 256.5 514.663C256.5 506.193 263.367 499.326 271.837 499.326H1387.31C1393.63 499.326 1399.81 501.197 1405.06 504.703L1434.94 524.624C1440.19 528.129 1446.37 530 1452.69 530H1649C1666.67 530 1681 515.673 1681 498V32C1681 14.3269 1666.67 0 1649 0H1552.5H392H310H32C14.3269 0 0 14.3269 0 32V190.076V245.389V340.93V381.158V436.105Z" fill="#1D1A1B"/>
</mask>
<g mask="url(#mask0_449_133)">
<path opacity="0.3" d="M1264 250.601H1404.95V391.362H1540.03C1540.03 313.599 1602.67 250.601 1680 250.601V114.761H1540.03V-26H1404.95C1404.95 51.7633 1341.33 114.761 1264 114.761V250.601Z" fill="#353333"/>
</g>
</svg>
